<svg viewBox="0 0 32 32" fill="currentColor" xmlns="http://www.w3.org/2000/svg">
<path d="M16 0C24.8366 0 32 7.16344 32 16C32 24.8366 24.8366 32 16 32C7.16344 32 0 24.8366 0 16C0 7.16344 7.16344 0 16 0ZM22.8076 7.17578C22.6157 7.19176 22.4317 7.2002 22.2559 7.2002H9.36816C9.25616 7.1842 9.13581 7.1842 9.00781 7.2002C8.92786 7.20023 8.84007 7.2245 8.74414 7.27246L8.71973 7.2959C8.70391 7.29599 8.69629 7.3044 8.69629 7.32031C8.69629 7.32031 8.68788 7.32031 8.67188 7.32031C8.592 7.3683 8.52842 7.44027 8.48047 7.53613C8.46447 7.55213 8.45605 7.5764 8.45605 7.6084C8.45592 7.62438 8.44747 7.648 8.43164 7.67969C8.39964 7.82369 8.38379 8.00001 8.38379 8.20801C8.39979 8.40001 8.4082 8.53621 8.4082 8.61621V11.7119C8.4082 11.9199 8.48844 12.0878 8.64844 12.2158C8.66444 12.2319 8.68781 12.2806 8.71973 12.3604C8.76767 12.4243 8.78357 12.4476 8.76758 12.4316C8.78355 12.4636 8.79197 12.5039 8.79199 12.5518C8.80794 12.5996 8.8239 12.6239 8.83984 12.624C8.87179 12.624 8.88764 12.6081 8.8877 12.5762C9.12734 12.8318 9.26364 12.9755 9.2959 13.0078L9.34375 13.0557C9.34375 13.0557 9.40813 13.1285 9.53613 13.2725L9.72754 13.4639C9.77552 13.5118 9.82409 13.5679 9.87207 13.6318C9.91998 13.6797 9.96772 13.72 10.0156 13.752C10.0316 13.896 10.0316 14.048 10.0156 14.208V14.6396C10.0317 14.5759 10.088 14.5281 10.1836 14.4961C10.2956 14.4801 10.3684 14.5762 10.4004 14.7842C10.3844 14.6242 10.3676 14.4721 10.3516 14.3281C10.3516 14.1841 10.36 14.032 10.376 13.8721H10.4004C10.4163 13.8562 10.4238 13.8477 10.4238 13.8477H10.4482C10.4624 13.8335 10.4702 13.8257 10.4717 13.8242C10.5037 13.7922 10.5364 13.7437 10.5684 13.6797C10.6162 13.6 10.6481 13.5521 10.6641 13.5361C10.68 13.5202 10.696 13.5042 10.7119 13.4883C10.7119 13.4723 10.7203 13.4639 10.7363 13.4639V13.4404C10.7521 13.4403 10.7598 13.4319 10.7598 13.416C10.8238 13.624 10.8564 13.8003 10.8564 13.9443C10.8564 13.8964 10.8639 13.8402 10.8799 13.7764C10.9119 13.7124 10.9361 13.6396 10.9521 13.5596C10.968 13.5277 10.9841 13.4881 11 13.4404C11.016 13.3924 11.0403 13.3598 11.0723 13.3438L11.1201 13.3916C11.1361 13.4076 11.1678 13.4403 11.2158 13.4883C11.2638 13.5203 11.2797 13.5277 11.2637 13.5117C11.2957 13.5437 11.3358 13.5922 11.3838 13.6562C11.4318 13.7042 11.4803 13.7444 11.5283 13.7764L11.5996 14.1123C11.6156 14.1603 11.624 14.2322 11.624 14.3281C11.624 14.408 11.6483 14.4398 11.6963 14.4238C11.7759 14.3918 11.8078 14.3281 11.792 14.2324C11.776 14.1364 11.7844 14.0562 11.8164 13.9922H11.9121C12.0401 13.8802 12.1035 13.8158 12.1035 13.7998C12.1037 13.7837 12.128 13.7434 12.1758 13.6797C12.2078 13.6477 12.2405 13.6244 12.2725 13.6084C12.2733 13.6076 12.2891 13.5908 12.3203 13.5596C12.3842 13.4957 12.4404 13.432 12.4883 13.3682C12.5363 13.3042 12.5764 13.2398 12.6084 13.1758L12.752 12.8877C12.7839 12.8397 12.8082 12.7836 12.8242 12.7197L12.8721 12.5283C12.8721 12.4963 12.8805 12.4721 12.8965 12.4561C12.9272 12.3947 12.9431 12.3628 12.9443 12.3604L13.04 12.5518V22.7998C13.04 22.8638 13.0316 22.9282 13.0156 22.9922V23.1836C13.0156 23.2956 13.0325 23.4159 13.0645 23.5439C13.0964 23.6399 13.1282 23.7043 13.1602 23.7363C13.24 23.8481 13.344 23.9276 13.4717 23.9756C13.5037 23.9756 13.5195 23.984 13.5195 24H13.5684C13.6322 24.0001 13.6884 24.0244 13.7363 24.0723C13.7682 24.1361 13.7916 24.1764 13.8076 24.1924V24.2158C13.8235 24.2317 13.8319 24.2478 13.832 24.2637C13.896 24.3756 13.9604 24.4876 14.0244 24.5996C14.0884 24.7116 14.1518 24.832 14.2158 24.96C14.2158 24.96 14.2242 24.9684 14.2402 24.9844C14.2719 25.0003 14.288 25.0239 14.2881 25.0557C14.4321 25.2637 14.5039 25.5361 14.5039 25.8721C14.5199 26.2239 14.504 26.5918 14.4561 26.9756C14.4081 27.3754 14.3679 27.7357 14.3359 28.0557C14.3199 28.3917 14.3601 28.6482 14.4561 28.8242C14.4562 28.8402 14.4721 28.8646 14.5039 28.8965C14.5358 28.9283 14.5518 28.9359 14.5518 28.9199C14.5678 28.7439 14.5762 28.4799 14.5762 28.1279C14.5922 27.792 14.5996 27.4318 14.5996 27.0479C14.6156 26.664 14.624 26.2962 14.624 25.9443C14.624 25.6083 14.6324 25.3518 14.6484 25.1758C14.6803 25.1598 14.7123 25.1354 14.7441 25.1035C14.776 25.0717 14.8005 25.0482 14.8164 25.0322C14.8324 25.0163 14.8483 25.0003 14.8643 24.9844C14.8802 24.9524 14.9036 24.9197 14.9355 24.8877C15.0155 24.7597 15.0883 24.6478 15.1523 24.5518C15.2323 24.4559 15.3117 24.3596 15.3916 24.2637L15.416 24.2402C15.416 24.2242 15.4319 24.1999 15.4639 24.168C15.4959 24.152 15.5201 24.1277 15.5361 24.0957C15.5681 24.1117 15.6241 24.1201 15.7041 24.1201H15.7764C15.8243 24.1681 15.8805 24.2317 15.9443 24.3115C16.0243 24.4075 16.0803 24.4719 16.1123 24.5039C16.1602 24.5997 16.1835 24.6877 16.1836 24.7676C16.2156 24.9916 16.2324 25.2164 16.2324 25.4404C16.2324 25.6643 16.2483 25.8884 16.2803 26.1123C16.2804 26.1279 16.288 26.1279 16.3037 26.1123C16.3357 26.1123 16.36 26.1039 16.376 26.0879C16.4079 26.0239 16.4238 25.952 16.4238 25.8721C16.4398 25.7922 16.4557 25.7202 16.4717 25.6562C16.4717 25.6562 16.4875 25.5676 16.5195 25.3916C16.5515 25.2158 16.5842 25.0401 16.6162 24.8643C16.6481 24.6889 16.664 24.5927 16.6641 24.5762L16.7598 24.4805L16.9043 24.3838V24.3604C16.9201 24.3603 16.9277 24.3518 16.9277 24.3359L16.9521 24.3115C17.0001 24.3275 17.0319 24.3602 17.0479 24.4082C17.0797 24.4719 17.1117 24.5198 17.1436 24.5518C17.2556 24.6318 17.3442 24.6001 17.4082 24.4561C17.4722 24.3281 17.5282 24.2235 17.5762 24.1436C17.7199 24.0797 17.7761 24.0722 17.7441 24.1201C17.7282 24.1681 17.7842 24.2157 17.9121 24.2637C17.944 24.2636 17.9759 24.2401 18.0078 24.1924C18.0397 24.1605 18.0716 24.1522 18.1035 24.168C18.1355 24.168 18.1682 24.1838 18.2002 24.2158C18.2321 24.2637 18.264 24.2955 18.2959 24.3115C18.3758 24.3275 18.4478 24.304 18.5117 24.2402C18.5437 24.2082 18.5764 24.1681 18.6084 24.1201C18.6402 24.0883 18.6637 24.0562 18.6797 24.0244C18.6957 24.0084 18.7115 23.9916 18.7275 23.9756C18.7435 23.9596 18.7604 23.9437 18.7764 23.9277C18.872 23.8798 18.9518 23.816 19.0156 23.7363C19.0315 23.7205 19.0399 23.7043 19.04 23.6885C19.056 23.6725 19.0803 23.6323 19.1123 23.5684C19.1123 23.5524 19.1197 23.5355 19.1357 23.5195V23.2324C19.1517 23.1204 19.1517 23.0001 19.1357 22.8721V12.4316L19.2803 12.5762L19.4482 12.8164C19.4962 12.8963 19.5523 12.9842 19.6162 13.0801C19.7761 13.336 19.9283 13.5918 20.0723 13.8477C20.2323 14.0877 20.3843 14.3358 20.5283 14.5918L20.7441 15L20.7676 15.0244L20.8398 15.168C20.8718 15.2319 20.9036 15.3039 20.9355 15.3838C20.9835 15.4477 21.0321 15.5197 21.0801 15.5996L21.1279 15.6484C21.2237 15.7442 21.2723 15.8078 21.2725 15.8398C21.2885 15.8718 21.3043 15.8961 21.3203 15.9121C21.3841 15.96 21.416 15.9844 21.416 15.9844C21.448 15.9524 21.4638 15.9121 21.4639 15.8643C21.4798 15.8164 21.4958 15.7761 21.5117 15.7441C21.6077 15.6801 21.7122 15.5682 21.8242 15.4082C22.0002 15.1363 22.1439 14.8721 22.2559 14.6162C22.3838 14.3442 22.5042 14.0802 22.6162 13.8242C22.6962 13.6802 22.768 13.5356 22.832 13.3916C22.896 13.2477 22.9605 13.1038 23.0244 12.96C23.1043 12.8321 23.1679 12.7199 23.2158 12.624C23.2638 12.5122 23.3199 12.4243 23.3838 12.3604C23.3998 12.3444 23.4157 12.32 23.4316 12.2881C23.4636 12.2561 23.4879 12.2403 23.5039 12.2402L23.5762 12.168L23.6963 12.0244C23.7123 12.0084 23.7197 11.9916 23.7197 11.9756C23.7199 11.9597 23.7283 11.9436 23.7441 11.9277C23.7281 11.9437 23.7281 11.9279 23.7441 11.8799C23.7601 11.816 23.7676 11.8001 23.7676 11.832C23.7996 11.7041 23.808 11.5762 23.792 11.4482C23.776 11.3044 23.7676 11.1763 23.7676 11.0645V8.75977C23.7836 8.47196 23.7836 8.20018 23.7676 7.94434C23.7676 7.83234 23.7601 7.72784 23.7441 7.63184C23.7281 7.53589 23.6637 7.44813 23.5518 7.36816C23.5358 7.33617 23.504 7.3119 23.4561 7.2959C23.4241 7.26391 23.3839 7.23963 23.3359 7.22363C23.176 7.17567 22.9996 7.15979 22.8076 7.17578ZM10.0156 14.6396C9.95163 14.7996 9.92834 15.032 9.94434 15.3359C9.97634 15.6239 10.0165 15.8562 10.0645 16.0322C10.1124 16.2079 10.1199 16.2239 10.0879 16.0801C10.0399 15.8561 10.0082 15.6238 9.99219 15.3838C9.99219 15.1439 9.99963 14.8956 10.0156 14.6396ZM10.4004 15C10.4004 15.176 10.3836 15.3682 10.3516 15.5762C10.3196 15.7839 10.2878 15.9437 10.2559 16.0557C10.2399 16.1517 10.2483 16.1517 10.2803 16.0557C10.3441 15.8799 10.3759 15.7041 10.376 15.5283C10.392 15.3523 10.4004 15.176 10.4004 15Z"/>
</svg>
