<svg width="85" height="85" viewBox="0 0 85 85" fill="none" xmlns="http://www.w3.org/2000/svg">
<path d="M42.4121 0C65.8357 0 84.8242 18.9885 84.8242 42.4121C84.8242 65.8357 65.8357 84.8242 42.4121 84.8242C18.9885 84.8242 0 65.8357 0 42.4121C4.53558e-05 18.9886 18.9886 4.53617e-05 42.4121 0ZM61.8584 19.832C61.4344 19.7048 60.9678 19.6627 60.459 19.7051C59.95 19.7475 59.4617 19.7686 58.9951 19.7686H24.832C24.5352 19.7262 24.2171 19.7262 23.8779 19.7686C23.666 19.7686 23.4331 19.8328 23.1787 19.96L23.1143 20.0234C23.0721 20.0236 23.0508 20.0446 23.0508 20.0869H22.9873C22.7754 20.2141 22.6057 20.4048 22.4785 20.6592C22.4361 20.7016 22.415 20.7658 22.415 20.8506C22.4149 20.893 22.3938 20.9565 22.3516 21.041C22.2668 21.4227 22.2236 21.8892 22.2236 22.4404C22.266 22.9494 22.2881 23.3104 22.2881 23.5225V31.7285C22.2881 32.2799 22.4997 32.7261 22.9238 33.0654C22.9662 33.1081 23.0297 33.2349 23.1143 33.4463C23.2412 33.6156 23.2842 33.6796 23.2422 33.6377C23.2845 33.7225 23.3057 33.829 23.3057 33.9561C23.348 34.0829 23.3903 34.1464 23.4326 34.1465C23.5173 34.1465 23.5595 34.1041 23.5596 34.0195C24.1955 34.6979 24.5566 35.0791 24.6416 35.1641C24.7264 35.2489 24.7686 35.292 24.7686 35.292C24.7739 35.298 24.9435 35.4887 25.2773 35.8643L25.7861 36.373C25.9133 36.5002 26.0408 36.6488 26.168 36.8184C26.2952 36.9456 26.4226 37.0519 26.5498 37.1367C26.5922 37.5184 26.5922 37.9216 26.5498 38.3457V39.4902C26.5922 39.3207 26.7408 39.1932 26.9951 39.1084C27.292 39.066 27.4835 39.3207 27.5684 39.8721C27.5259 39.4479 27.4828 39.0448 27.4404 38.6631C27.4404 38.2816 27.4615 37.8789 27.5039 37.4551H27.5684C27.6108 37.4127 27.6318 37.3906 27.6318 37.3906H27.6953C27.7376 37.3484 27.7588 37.3271 27.7588 37.3271C27.8436 37.2423 27.9289 37.1149 28.0137 36.9453C28.1408 36.7335 28.2252 36.6059 28.2676 36.5635C28.3099 36.5212 28.3522 36.4788 28.3945 36.4365C28.3946 36.3942 28.4166 36.373 28.459 36.373V36.3096C28.501 36.3094 28.5224 36.2882 28.5225 36.2461C28.6921 36.7973 28.7764 37.2639 28.7764 37.6455C28.7764 37.5183 28.7975 37.3698 28.8398 37.2002C28.9246 37.0306 28.9888 36.8399 29.0312 36.6279C29.0736 36.5431 29.1158 36.4367 29.1582 36.3096C29.2006 36.1823 29.2648 36.0971 29.3496 36.0547L29.4766 36.1826C29.519 36.2251 29.6037 36.3097 29.7305 36.4365C29.8577 36.5213 29.9008 36.5424 29.8584 36.5C29.9432 36.5848 30.0495 36.7122 30.1768 36.8818C30.3039 37.0089 30.4305 37.1154 30.5576 37.2002L30.749 38.0908C30.7914 38.218 30.8125 38.4088 30.8125 38.6631C30.8125 38.8749 30.876 38.9601 31.0029 38.918C31.2149 38.8332 31.3001 38.6635 31.2578 38.4092C31.2154 38.1547 31.2365 37.9421 31.3213 37.7725H31.5762C31.9153 37.4757 32.085 37.3061 32.085 37.2637C32.085 37.2212 32.1482 37.1149 32.2754 36.9453C32.3602 36.8605 32.4455 36.7973 32.5303 36.7549L32.6572 36.6279C32.8269 36.4583 32.9753 36.2878 33.1025 36.1182C33.2297 35.9486 33.3361 35.779 33.4209 35.6094L33.8027 34.8467C33.8875 34.7196 33.9508 34.5708 33.9932 34.4014C34.0356 34.2317 34.0787 34.0612 34.1211 33.8916C34.1212 33.807 34.1422 33.7435 34.1846 33.7012C34.2694 33.5316 34.3115 33.4463 34.3115 33.4463L34.5664 33.9561V61.1211C34.5664 61.2906 34.5443 61.4604 34.502 61.6299V62.1387C34.502 62.4355 34.5451 62.7535 34.6299 63.0928C34.7146 63.347 34.799 63.5167 34.8838 63.6016C35.0959 63.8984 35.3716 64.111 35.7109 64.2383C35.7958 64.2383 35.8379 64.2593 35.8379 64.3018H35.9658C36.1354 64.3018 36.284 64.365 36.4111 64.4922C36.4959 64.6618 36.5592 64.7681 36.6016 64.8105V64.874C36.6439 64.9163 36.6649 64.9587 36.665 65.001C36.8346 65.2977 37.0043 65.5949 37.1738 65.8916C37.3435 66.1885 37.5139 66.5074 37.6836 66.8467C37.6867 66.8497 37.708 66.8711 37.7471 66.9102C37.8317 66.9525 37.874 67.0159 37.874 67.1006C38.2557 67.6519 38.4463 68.3731 38.4463 69.2637C38.4887 70.1967 38.4466 71.1725 38.3193 72.1904C38.1921 73.2505 38.0858 74.2046 38.001 75.0527C37.9586 75.9434 38.0649 76.6223 38.3193 77.0889C38.3194 77.1312 38.3618 77.1947 38.4463 77.2793C38.5308 77.3638 38.5739 77.3855 38.5742 77.3438C38.6166 76.8773 38.6377 76.1771 38.6377 75.2441C38.6801 74.3535 38.7012 73.3988 38.7012 72.3809C38.7436 71.3632 38.7646 70.3879 38.7646 69.4551C38.7646 68.5645 38.7857 67.8855 38.8281 67.4189C38.9129 67.3765 38.9982 67.3124 39.083 67.2275C39.1676 67.1429 39.2311 67.0795 39.2734 67.0371C39.3159 66.9947 39.359 66.9526 39.4014 66.9102C39.4438 66.8253 39.507 66.7401 39.5918 66.6553C39.8038 66.316 39.9944 66.0191 40.1641 65.7646C40.3761 65.5102 40.5887 65.2554 40.8008 65.001L40.8643 64.9375C40.8644 64.8951 40.9067 64.8317 40.9912 64.7471C41.076 64.7047 41.1402 64.6405 41.1826 64.5557C41.2675 64.598 41.416 64.6191 41.6279 64.6191H41.8184C41.9456 64.7464 42.094 64.9168 42.2637 65.1289C42.4757 65.3833 42.6242 65.5529 42.709 65.6377C42.8361 65.892 42.9003 66.125 42.9004 66.3369C42.964 66.7821 43.0036 67.2277 43.0195 67.6729L43.0352 68.5635C43.051 69.009 43.0907 69.4549 43.1543 69.9004C43.1544 69.9422 43.1758 69.9423 43.2178 69.9004C43.3026 69.9004 43.3668 69.8783 43.4092 69.8359C43.4939 69.6664 43.5361 69.4756 43.5361 69.2637C43.5785 69.0518 43.6207 68.861 43.6631 68.6914C43.6631 68.6914 43.7062 68.4577 43.791 67.9912C43.8758 67.5248 43.9601 67.0582 44.0449 66.5918C44.1297 66.1253 44.1719 65.8705 44.1719 65.8281L44.4268 65.5742L44.8086 65.3193V65.2559C44.8509 65.2558 44.872 65.2346 44.8721 65.1924L44.9355 65.1289C45.0627 65.1713 45.148 65.2556 45.1904 65.3828C45.2752 65.5523 45.3596 65.6798 45.4443 65.7646C45.7411 65.9766 45.9749 65.8921 46.1445 65.5107C46.3141 65.1716 46.4626 64.8956 46.5898 64.6836C46.9712 64.5141 47.1195 64.4923 47.0352 64.6191C46.9927 64.7464 47.1412 64.8738 47.4805 65.001C47.5653 65.001 47.6505 64.9378 47.7354 64.8105C47.8201 64.7259 47.9045 64.7047 47.9893 64.7471C48.0741 64.7471 48.1593 64.7892 48.2441 64.874C48.3289 65.0012 48.4133 65.0865 48.498 65.1289C48.7101 65.1713 48.9016 65.1071 49.0713 64.9375C49.156 64.8527 49.2405 64.7462 49.3252 64.6191C49.4099 64.5344 49.4742 64.45 49.5166 64.3652C49.5589 64.3229 49.6012 64.2806 49.6436 64.2383C49.686 64.1959 49.7281 64.1528 49.7705 64.1104C50.025 63.9831 50.2376 63.8136 50.4072 63.6016C50.4494 63.5593 50.4707 63.5169 50.4707 63.4746C50.5131 63.4322 50.5763 63.3259 50.6611 63.1562C50.6612 63.114 50.6824 63.0716 50.7246 63.0293V62.2656C50.767 61.9688 50.767 61.6508 50.7246 61.3115V33.6377L51.1064 34.0195L51.5518 34.6553C51.679 34.8673 51.8274 35.101 51.9971 35.3555C52.4211 36.0339 52.8244 36.7121 53.2061 37.3906C53.6302 38.0268 54.0333 38.6847 54.415 39.3633L54.9873 40.4443L55.0508 40.5078L55.2422 40.8896C55.327 41.0593 55.4113 41.2508 55.4961 41.4629C55.6233 41.6325 55.7507 41.8231 55.8779 42.0352L56.0049 42.1621C56.2589 42.4162 56.3863 42.5859 56.3867 42.6709C56.4291 42.7557 56.4722 42.8199 56.5146 42.8623C56.6789 42.9855 56.7635 43.0489 56.7686 43.0527C56.8532 42.968 56.8954 42.8624 56.8955 42.7354C56.9379 42.6081 56.981 42.5018 57.0234 42.417C57.2779 42.2473 57.5537 41.9504 57.8506 41.5264C58.3171 40.8054 58.6982 40.1053 58.9951 39.4268C59.3344 38.7058 59.6523 38.0057 59.9492 37.3271C60.1612 36.9455 60.3528 36.5643 60.5225 36.1826C60.6921 35.8009 60.8616 35.4188 61.0312 35.0371C61.2433 34.6979 61.4128 34.4009 61.54 34.1465C61.6673 33.8496 61.8157 33.6159 61.9854 33.4463C62.0277 33.4039 62.07 33.3405 62.1123 33.2559C62.1971 33.171 62.2613 33.1289 62.3037 33.1289L62.4941 32.9375L62.8125 32.5557C62.8441 32.524 62.8641 32.4926 62.8721 32.4609L62.8799 32.3965C62.8879 32.3649 62.9079 32.3334 62.9395 32.3018C62.8973 32.3438 62.8971 32.3008 62.9395 32.1738C62.9818 32.0046 63.0029 31.9623 63.0029 32.0469C63.0877 31.7077 63.1098 31.3685 63.0674 31.0293C63.025 30.6478 63.003 30.3085 63.0029 30.0117V23.9043C63.0453 23.141 63.0453 22.4197 63.0029 21.7412C63.0029 21.4444 62.9818 21.1685 62.9395 20.9141C62.897 20.6596 62.7276 20.4259 62.4307 20.2139C62.3883 20.1292 62.3036 20.0658 62.1768 20.0234C62.092 19.9386 61.9856 19.8744 61.8584 19.832ZM26.5498 39.4902C26.3802 39.9143 26.317 40.5293 26.3594 41.335C26.4442 42.0984 26.5505 42.7141 26.6777 43.1807C26.8048 43.6466 26.826 43.689 26.7412 43.3076C26.614 42.7139 26.5287 42.099 26.4863 41.4629C26.4863 40.8267 26.5074 40.1688 26.5498 39.4902ZM27.5684 40.4443C27.5684 40.9109 27.5253 41.4203 27.4404 41.9717C27.3556 42.5229 27.2713 42.9473 27.1865 43.2441C27.1442 43.4983 27.1653 43.4983 27.25 43.2441C27.4196 42.7778 27.5039 42.3111 27.5039 41.8447C27.5463 41.3782 27.5684 40.9109 27.5684 40.4443Z" fill="white"/>
</svg>
