<svg viewBox="0 0 33 34" fill="currentColor" xmlns="http://www.w3.org/2000/svg">
<path d="M16.7051 1.00195L16.7871 1.00977L16.8311 1.01367H17.3184C17.8893 1.01367 18.1902 1.68457 17.834 2.10254L17.7373 2.20312C15.7305 4.08283 14.4404 6.6028 14.0898 9.33105C13.7372 12.0756 14.3574 14.8568 15.8428 17.1914C17.3283 19.526 19.5852 21.2662 22.2207 22.1094C24.8563 22.9525 27.7047 22.8456 30.2695 21.8066H30.2705C30.8161 21.5852 31.3615 22.1321 31.1338 22.6797C30.0453 25.2986 28.266 27.5727 25.9863 29.2598C23.7066 30.9469 21.0112 31.9832 18.1885 32.2588C15.366 32.5343 12.5218 32.0385 9.95898 30.8242C7.39606 29.6099 5.21019 27.7231 3.63574 25.3643C2.06128 23.0053 1.15676 20.2624 1.01855 17.4297C0.880433 14.5971 1.51428 11.7802 2.85156 9.2793C4.18891 6.77832 6.17972 4.68658 8.6123 3.22852C11.0427 1.77182 13.8228 1.00188 16.6562 1L16.7051 1.00195Z" stroke-width="2"/>
</svg>
